<?xml version="1.0" encoding="UTF-8"?>
<svg xmlns="http://www.w3.org/2000/svg"
     viewBox="0 0 1024 1024"
     width="1024"
     height="1024"
     role="img"
     aria-label="Yata Yatagarasu">
  <!-- Simplified Yatagarasu mark; traced from assets/icons/yata-yatagarasu-simple.png -->
  <g transform="translate(0 1024) scale(0.1 -0.1)" fill="#fff" fill-rule="evenodd">
    <path d="M7585 10224 c-298 -45 -579 -199 -800 -437 -125 -134 -219 -265 -356 -497 -67 -113 -234 -393 -371 -623 -137 -229 -246 -421 -243 -427 3 -5 38 -29 78 -53 81 -50 553 -343 963 -598 l271 -169 6 -222 c4 -123 10 -388 13 -590 l7 -366 -418 -539 c-418 -537 -657 -845 -662 -852 -2 -4 -148 -39 -683 -165 -406 -97 -641 -152 -935 -222 -126 -30 -257 -61 -290 -69 -33 -8 -208 -50 -390 -94 -181 -43 -532 -127 -780 -186 -247 -59 -595 -142 -772 -185 l-322 -78 -278 -198 c-153 -109 -379 -270 -503 -359 -124 -89 -387 -278 -585 -420 -524 -376 -525 -377 -530 -385 -2 -4 48 -14 113 -23 64 -9 255 -36 423 -61 l307 -45 283 160 c156 89 392 222 524 297 132 74 278 157 325 184 l85 49 -175 -178 c-96 -98 -264 -268 -373 -379 l-199 -201 39 -6 c21 -3 197 -29 391 -57 l352 -52 108 93 c59 52 161 141 227 199 66 58 198 173 294 255 96 83 228 197 295 255 67 58 199 172 293 253 l172 148 163 -35 c206 -44 246 -51 448 -76 90 -12 165 -22 166 -23 2 -2 -71 -496 -91 -623 l-7 -40 139 -121 139 -121 124 -274 c68 -150 188 -415 266 -588 79 -173 142 -316 140 -318 -4 -3 -186 24 -462 68 -149 24 -161 24 -202 3 -36 -20 -270 -223 -271 -236 -1 -5 29 -6 67 -3 37 3 103 8 147 11 l80 6 20 -43 c11 -24 31 -48 45 -55 14 -6 169 -33 345 -59 176 -26 325 -51 332 -56 6 -5 105 -128 218 -274 114 -145 217 -272 231 -280 17 -12 38 -15 69 -12 l44 5 60 -101 c71 -121 87 -143 96 -135 10 11 55 269 55 320 0 45 -5 54 -111 189 -61 78 -109 143 -107 144 3 3 96 -33 473 -184 110 -44 213 -80 229 -80 15 0 45 10 66 21 l38 22 126 -76 c69 -42 126 -73 126 -69 0 21 -113 321 -128 342 -14 18 -84 51 -267 125 -237 96 -246 100 -209 107 22 4 66 7 98 7 56 1 61 3 97 41 l39 40 97 -14 c54 -8 118 -18 143 -22 l45 -7 -125 132 c-68 73 -137 139 -152 147 -16 8 -56 14 -96 14 -72 0 -643 -26 -768 -34 l-71 -6 -83 188 c-45 103 -120 270 -165 372 -46 102 -140 312 -209 467 l-126 283 138 195 c313 445 408 580 420 602 8 14 22 23 38 23 31 0 305 54 404 80 41 10 76 17 79 15 2 -3 -3 -107 -11 -232 l-15 -227 152 -171 c232 -259 885 -1008 882 -1010 -1 -1 -129 8 -285 20 -204 17 -292 21 -318 13 -38 -10 -69 -38 -204 -187 l-85 -94 35 6 c124 22 275 39 277 31 10 -30 46 -76 66 -83 12 -4 182 -18 377 -31 l355 -22 290 -288 c187 -186 300 -291 317 -295 15 -4 42 -2 59 4 18 6 33 10 34 9 52 -78 169 -237 172 -234 2 1 13 75 24 162 16 125 18 167 9 196 -8 27 -48 75 -153 179 -78 78 -135 140 -127 137 9 -3 168 -49 353 -103 358 -102 375 -105 417 -60 l22 23 96 -45 c54 -25 113 -52 132 -61 19 -9 38 -18 42 -20 8 -4 -23 68 -99 231 -34 71 -54 102 -77 116 -17 10 -125 47 -241 80 -267 79 -261 76 -204 85 48 7 84 33 98 69 8 21 13 22 102 15 52 -3 117 -6 144 -7 l50 0 -46 42 c-193 176 -230 206 -262 215 -24 7 -69 6 -144 -3 -325 -40 -708 -85 -723 -85 -12 0 -151 155 -373 413 -195 226 -400 464 -456 529 -55 64 -101 118 -101 121 0 3 37 72 83 154 46 81 161 290 257 463 299 542 257 481 399 582 823 583 1355 1388 1500 2268 35 213 44 359 38 595 -8 313 -49 567 -144 900 -47 165 -48 174 -47 295 2 100 7 145 28 225 45 168 187 429 249 455 12 5 117 25 232 44 116 20 316 54 445 76 129 22 345 59 480 81 135 23 247 43 249 45 8 8 -94 137 -164 206 -105 105 -227 189 -390 269 -212 103 -403 163 -710 223 l-130 25 -93 91 c-51 50 -126 115 -165 144 -296 218 -660 313 -1002 260z m446 -522 c127 -66 158 -229 64 -340 -129 -153 -385 -58 -385 143 0 172 170 276 321 197z M4915 7654 c-308 -240 -605 -470 -660 -513 -55 -42 -206 -160 -335 -261 -129 -101 -345 -269 -480 -374 -135 -105 -331 -258 -436 -341 -105 -82 -248 -195 -318 -249 -69 -54 -125 -101 -123 -103 2 -2 158 8 346 22 189 15 352 25 363 23 15 -2 -21 -37 -144 -139 -388 -322 -825 -685 -982 -814 -216 -178 -705 -583 -955 -790 -106 -88 -188 -161 -183 -163 5 -1 141 29 303 68 452 109 750 181 1154 278 204 50 461 112 573 138 l203 49 332 340 c183 187 396 406 474 486 79 81 143 145 143 143 0 -2 -68 -142 -151 -311 -235 -478 -261 -535 -241 -529 9 3 152 37 317 77 165 39 357 85 426 103 l126 31 178 195 c305 334 708 770 712 770 1 0 -8 -24 -21 -52 -62 -141 -241 -538 -295 -655 -38 -85 -55 -133 -47 -133 8 0 85 18 172 39 88 21 244 59 347 82 l188 44 68 90 c38 50 252 324 476 610 l406 520 -5 290 c-3 160 -6 363 -6 453 l0 162 -82 54 c-132 84 -1277 796 -1281 796 -1 0 -254 -197 -562 -436z"/>
  </g>
</svg>
